<svg xmlns="http://www.w3.org/2000/svg" version="1.1" xmlns:xlink="http://www.w3.org/1999/xlink" xmlns:svgjs="http://svgjs.dev/svgjs" width="1000" height="270" viewBox="0 0 1000 270"><g transform="matrix(1,0,0,1,-0.6060606060606233,-0.5047163909975438)"><svg viewBox="0 0 396 107" data-background-color="#ffffff" preserveAspectRatio="xMidYMid meet" height="270" width="1000" xmlns="http://www.w3.org/2000/svg" xmlns:xlink="http://www.w3.org/1999/xlink"><g id="tight-bounds" transform="matrix(1,0,0,1,0.2400000000000091,0.2000172364323589)"><svg viewBox="0 0 395.52 106.5999655271353" height="106.5999655271353" width="395.52"><g><svg viewBox="0 0 395.52000000000004 106.59996552713531" height="106.5999655271353" width="395.52"><g transform="matrix(1,0,0,1,0,65.8830552742873)"><svg viewBox="0 0 395.52000000000004 40.71691025284801" height="40.71691025284801" width="395.52000000000004"><g id="textblocktransform"><svg viewBox="0 0 395.52000000000004 40.71691025284801" height="40.71691025284801" width="395.52000000000004" id="textblock"><g><svg viewBox="0 0 395.52000000000004 40.71691025284801" height="40.71691025284801" width="395.52000000000004"><g transform="matrix(1,0,0,1,0,0)"><svg width="395.52000000000004" viewBox="4.45 -36.65 359.87 37.05" height="40.71691025284801" data-palette-color="#3d9970"><path d="M27.95 0L4.45 0 4.45-36.25 9.95-36.25 9.95-5.2 27.95-5.2 27.95 0ZM33 0L33-36.25 38.45-36.25 38.45 0 33 0ZM44.9-36.25L68.45-36.25 68.45-31.05 59.3-31.05 59.3 0 53.85 0 53.85-31.05 44.9-31.05 44.9-36.25ZM72.44-36.25L95.99-36.25 95.99-31.05 86.84-31.05 86.84 0 81.39 0 81.39-31.05 72.44-31.05 72.44-36.25ZM126.94 0L102.44 0 102.44-36.25 126.24-36.25 126.24-31.3 107.94-31.3 107.94-20.7 124.24-20.7 124.24-15.65 107.94-15.65 107.94-5.05 126.94-5.05 126.94 0ZM138.79 0L133.29 0 133.29-36.25 143.19-36.25Q146.04-36.25 148.41-35.5 150.79-34.75 152.51-33.27 154.24-31.8 155.19-29.68 156.14-27.55 156.14-24.8L156.14-24.8Q156.14-23.3 155.84-21.83 155.54-20.35 154.86-18.98 154.19-17.6 153.14-16.43 152.09-15.25 150.59-14.45L150.59-14.45Q152.59-11.3 154.94-7.48 157.29-3.65 159.69 0L159.69 0 153.14 0Q152.14-1.55 151.06-3.25 149.99-4.95 148.91-6.63 147.84-8.3 146.81-9.93 145.79-11.55 144.89-12.95L144.89-12.95 143.89-12.95 138.79-12.95 138.79 0ZM138.79-31.15L138.79-18.1 143.74-18.1Q145.74-18.1 147.09-18.78 148.44-19.45 149.21-20.45 149.99-21.45 150.31-22.6 150.64-23.75 150.64-24.7L150.64-24.7Q150.64-25.65 150.31-26.78 149.99-27.9 149.19-28.88 148.39-29.85 147.06-30.5 145.74-31.15 143.79-31.15L143.79-31.15 138.79-31.15ZM194.68 0L171.18 0 171.18-36.25 176.68-36.25 176.68-5.2 194.68-5.2 194.68 0ZM196.13-18.1L196.13-18.1Q196.13-21.85 197.58-25.23 199.03-28.6 201.56-31.15 204.08-33.7 207.43-35.18 210.78-36.65 214.63-36.65L214.63-36.65Q218.43-36.65 221.81-35.18 225.18-33.7 227.71-31.15 230.23-28.6 231.71-25.23 233.18-21.85 233.18-18.1L233.18-18.1Q233.18-14.25 231.71-10.9 230.23-7.55 227.71-5.03 225.18-2.5 221.81-1.05 218.43 0.4 214.63 0.4L214.63 0.4Q210.78 0.4 207.43-1.05 204.08-2.5 201.56-5.03 199.03-7.55 197.58-10.9 196.13-14.25 196.13-18.1ZM201.58-18.05L201.58-18.05Q201.58-15.3 202.61-12.88 203.63-10.45 205.43-8.65 207.23-6.85 209.63-5.8 212.03-4.75 214.73-4.75L214.73-4.75Q217.43-4.75 219.81-5.8 222.18-6.85 223.96-8.65 225.73-10.45 226.76-12.88 227.78-15.3 227.78-18.1L227.78-18.1Q227.78-20.85 226.76-23.28 225.73-25.7 223.93-27.5 222.13-29.3 219.76-30.35 217.38-31.4 214.68-31.4L214.68-31.4Q211.98-31.4 209.58-30.35 207.18-29.3 205.41-27.5 203.63-25.7 202.61-23.25 201.58-20.8 201.58-18.05ZM236.98-18.1L236.98-18.1Q236.98-21.85 238.43-25.23 239.88-28.6 242.4-31.15 244.93-33.7 248.28-35.18 251.63-36.65 255.48-36.65L255.48-36.65Q259.28-36.65 262.65-35.18 266.03-33.7 268.55-31.15 271.08-28.6 272.55-25.23 274.03-21.85 274.03-18.1L274.03-18.1Q274.03-14.25 272.55-10.9 271.08-7.55 268.55-5.03 266.03-2.5 262.65-1.05 259.28 0.4 255.48 0.4L255.48 0.4Q251.63 0.4 248.28-1.05 244.93-2.5 242.4-5.03 239.88-7.55 238.43-10.9 236.98-14.25 236.98-18.1ZM242.43-18.05L242.43-18.05Q242.43-15.3 243.45-12.88 244.48-10.45 246.28-8.65 248.08-6.85 250.48-5.8 252.88-4.75 255.58-4.75L255.58-4.75Q258.28-4.75 260.65-5.8 263.03-6.85 264.8-8.65 266.58-10.45 267.6-12.88 268.63-15.3 268.63-18.1L268.63-18.1Q268.63-20.85 267.6-23.28 266.58-25.7 264.78-27.5 262.98-29.3 260.6-30.35 258.23-31.4 255.53-31.4L255.53-31.4Q252.83-31.4 250.43-30.35 248.03-29.3 246.25-27.5 244.48-25.7 243.45-23.25 242.43-20.8 242.43-18.05ZM277.07-36.25L300.63-36.25 300.63-31.05 291.47-31.05 291.47 0 286.02 0 286.02-31.05 277.07-31.05 277.07-36.25ZM331.57 0L307.07 0 307.07-36.25 330.87-36.25 330.87-31.3 312.57-31.3 312.57-20.7 328.87-20.7 328.87-15.65 312.57-15.65 312.57-5.05 331.57-5.05 331.57 0ZM343.42 0L337.92 0 337.92-36.25 347.82-36.25Q350.67-36.25 353.05-35.5 355.42-34.75 357.15-33.27 358.87-31.8 359.82-29.68 360.77-27.55 360.77-24.8L360.77-24.8Q360.77-23.3 360.47-21.83 360.17-20.35 359.5-18.98 358.82-17.6 357.77-16.43 356.72-15.25 355.22-14.45L355.22-14.45Q357.22-11.3 359.57-7.48 361.92-3.65 364.32 0L364.32 0 357.77 0Q356.77-1.55 355.7-3.25 354.62-4.95 353.55-6.63 352.47-8.3 351.45-9.93 350.42-11.55 349.52-12.95L349.52-12.95 348.52-12.95 343.42-12.95 343.42 0ZM343.42-31.15L343.42-18.1 348.37-18.1Q350.37-18.1 351.72-18.78 353.07-19.45 353.85-20.45 354.62-21.45 354.95-22.6 355.27-23.75 355.27-24.7L355.27-24.7Q355.27-25.65 354.95-26.78 354.62-27.9 353.82-28.88 353.02-29.85 351.7-30.5 350.37-31.15 348.42-31.15L348.42-31.15 343.42-31.15Z" opacity="1" transform="matrix(1,0,0,1,0,0)" fill="#3d9970" class="wordmark-text-0" data-fill-palette-color="primary" id="text-0"></path></svg></g></svg></g></svg></g></svg></g><g transform="matrix(1,0,0,1,165.78213158857932,0)"><svg viewBox="0 0 63.95573682284143 56.27076996943595" height="56.27076996943595" width="63.95573682284143"><g><svg xmlns="http://www.w3.org/2000/svg" xmlns:xlink="http://www.w3.org/1999/xlink" version="1.1" x="8" y="0" viewBox="19.28424020035922 14.104 62.19075979964077 72.974" enable-background="new 0 0 100 100" xml:space="preserve" height="56.27076996943595" width="47.95573682284143" class="icon-icon-0" data-fill-palette-color="accent" id="icon-0"><path d="M42.085 26.615c2.302-2.451 4.042-1.625 4.79-1.109 0.43 0.205 0.87 0.512 1.36 0.82l0.277 0.227c0.799 0.717 9.809 10.965 9.809 10.965l11.813 1.266c2.455 0.215 3.2 0.422 3.324 2.06 0.078 1.91-1.541 2.207-2.849 2.38-1.308 0.174-8.906-0.16-11.754-0.297-1.89-0.04-2.113 0.054-3.036-0.407-0.615-0.256-7.661-6.843-7.661-6.843L38.81 48.31c0.316 0.207 6.21 10.11 7.918 12.92 1.528 1.728 1.257 6.608 1.257 6.608l-1.192 15.438c0 2.758-1.352 3.705-3.25 3.796-2.097-0.337-2.702-0.937-2.702-3.695 0 0 0.815-17.028 0.815-17.059 0 0-8.042-13.663-8.587-14.269 0 0-0.131 4.857-0.166 7.783-0.036 2.928-0.152 3.742-1.105 6.3-0.405 1.07-6.154 16.068-6.812 18.369-0.25 0.688-1.684 2.453-4.016 1.633-2.332-0.821-1.565-3.494-1.565-3.494l6.458-19.17 0.835-15.448c0.041-0.052 1.644-2.996 1.672-3.049 0.565-0.84 1.107-1.502 1.589-2.15L40.726 28.15" fill="#3d9970" data-fill-palette-color="accent"></path><path d="M58.227 20.006L58.227 20.006c0 3.257-2.636 5.888-5.887 5.888-3.259 0-5.892-2.631-5.892-5.888 0-3.272 2.633-5.902 5.892-5.902C55.591 14.104 58.227 16.734 58.227 20.006L58.227 20.006z" fill="#3d9970" data-fill-palette-color="accent"></path><polygon points="79.245,87.078 64.487,87.078 62.123,58.496 81.475,58.496 " fill="#3d9970" data-fill-palette-color="accent"></polygon><rect x="65.464" y="46.879" transform="matrix(0.864 0.5035 -0.5035 0.864 34.6232 -27.8008)" width="6.618" height="6.62" fill="#3d9970" data-fill-palette-color="accent"></rect><rect x="74.091" y="53.138" transform="matrix(0.3752 0.927 -0.927 0.3752 98.7692 -36.1025)" width="4.147" height="4.148" fill="#3d9970" data-fill-palette-color="accent"></rect></svg></g></svg></g><g><rect width="165.78213158857926" height="3.671892986453215" y="51.598876982982745" x="229.73786841142072" fill="#3d9970" data-fill-palette-color="accent"></rect><rect width="165.78213158857926" height="3.671892986453215" y="51.598876982982745" x="2.842170943040401e-14" fill="#3d9970" data-fill-palette-color="accent"></rect><rect width="165.78213158857926" height="3.671892986453215" y="44.25509101007631" x="229.73786841142072" fill="#3d9970" data-fill-palette-color="accent"></rect><rect width="165.78213158857926" height="3.671892986453215" y="44.25509101007631" x="2.842170943040401e-14" fill="#3d9970" data-fill-palette-color="accent"></rect></g></svg></g><defs></defs></svg><rect width="395.52" height="106.5999655271353" fill="none" stroke="none" visibility="hidden"></rect></g></svg></g></svg>